<?xml version="1.0" encoding="UTF-8"?>
<svg xmlns="http://www.w3.org/2000/svg" xmlns:xlink="http://www.w3.org/1999/xlink" width="600pt" height="599.999999pt" viewBox="0 0 600 599.999999" version="1.2">
<defs>
<clipPath id="clip1">
  <path d="M 464 333 L 599.507812 333 L 599.507812 470 L 464 470 Z M 464 333 "/>
</clipPath>
<clipPath id="clip2">
  <path d="M 236 86.242188 L 299 86.242188 L 299 149 L 236 149 Z M 236 86.242188 "/>
</clipPath>
<clipPath id="clip3">
  <path d="M 3.503906 281 L 191 281 L 191 470 L 3.503906 470 Z M 3.503906 281 "/>
</clipPath>
<clipPath id="clip4">
  <path d="M 80 373 L 185 373 L 185 477.730469 L 80 477.730469 Z M 80 373 "/>
</clipPath>
</defs>
<g id="surface1">
<path style=" stroke:none;fill-rule:nonzero;fill:rgb(7.839966%,73.329163%,88.62915%);fill-opacity:1;" d="M 164.402344 469.457031 L 535.554688 468.871094 L 480.65625 368.339844 L 185.136719 330.058594 Z M 164.402344 469.457031 "/>
<path style=" stroke:none;fill-rule:nonzero;fill:rgb(7.839966%,73.329163%,88.62915%);fill-opacity:1;" d="M 149.511719 292.359375 C 149.511719 323.335938 124.398438 348.761719 93.152344 348.761719 C 61.90625 348.761719 36.792969 323.628906 36.792969 292.359375 C 36.792969 261.089844 61.90625 235.957031 93.152344 235.957031 C 124.398438 235.957031 149.511719 261.382812 149.511719 292.359375 Z M 149.511719 292.359375 "/>
<g clip-path="url(#clip1)" clip-rule="nonzero">
<path style=" stroke:none;fill-rule:nonzero;fill:rgb(7.839966%,73.329163%,88.62915%);fill-opacity:1;" d="M 599.507812 401.65625 C 599.507812 439.0625 569.136719 469.457031 531.757812 469.457031 C 494.382812 469.457031 464.011719 439.0625 464.011719 401.65625 C 464.011719 364.25 494.382812 333.855469 531.757812 333.855469 C 569.136719 333.855469 599.507812 363.957031 599.507812 401.65625 Z M 599.507812 401.65625 "/>
</g>
<path style=" stroke:none;fill-rule:nonzero;fill:rgb(0%,65.098572%,87.449646%);fill-opacity:1;" d="M 333.1875 269.566406 C 333.1875 329.472656 284.714844 377.984375 224.851562 377.984375 C 164.988281 377.984375 116.511719 329.472656 116.511719 269.566406 C 116.511719 209.65625 164.988281 161.144531 224.851562 161.144531 C 284.714844 161.144531 333.1875 209.65625 333.1875 269.566406 Z M 333.1875 269.566406 "/>
<path style=" stroke:none;fill-rule:nonzero;fill:rgb(7.839966%,73.329163%,88.62915%);fill-opacity:1;" d="M 445.613281 223.097656 C 445.613281 266.351562 410.574219 301.417969 367.355469 301.417969 C 324.136719 301.417969 289.09375 266.351562 289.09375 223.097656 C 289.09375 179.847656 324.136719 144.777344 367.355469 144.777344 C 410.574219 144.777344 445.613281 179.847656 445.613281 223.097656 Z M 445.613281 223.097656 "/>
<path style=" stroke:none;fill-rule:nonzero;fill:rgb(7.839966%,73.329163%,88.62915%);fill-opacity:1;" d="M 398.890625 327.136719 C 398.890625 370.386719 363.851562 405.457031 320.632812 405.457031 C 277.414062 405.457031 242.371094 370.386719 242.371094 327.136719 C 242.371094 283.882812 277.414062 248.816406 320.632812 248.816406 C 363.851562 248.816406 398.890625 283.882812 398.890625 327.136719 Z M 398.890625 327.136719 "/>
<path style=" stroke:none;fill-rule:nonzero;fill:rgb(0%,44.309998%,68.629456%);fill-opacity:1;" d="M 552.785156 327.136719 C 552.785156 391.136719 493.503906 419.484375 429.554688 419.484375 C 365.601562 419.484375 320.632812 391.136719 320.632812 327.136719 C 320.632812 263.136719 372.609375 211.117188 436.5625 211.117188 C 500.511719 211.117188 552.785156 262.84375 552.785156 327.136719 Z M 552.785156 327.136719 "/>
<path style=" stroke:none;fill-rule:nonzero;fill:rgb(100%,100%,100%);fill-opacity:0.7176;" d="M 500.804688 268.980469 C 500.804688 269.632812 500.742188 270.277344 500.613281 270.917969 C 500.488281 271.558594 500.300781 272.179688 500.050781 272.78125 C 499.800781 273.386719 499.496094 273.957031 499.132812 274.5 C 498.769531 275.042969 498.359375 275.542969 497.898438 276.007812 C 497.4375 276.46875 496.933594 276.878906 496.394531 277.242188 C 495.851562 277.605469 495.277344 277.910156 494.675781 278.160156 C 494.074219 278.410156 493.453125 278.597656 492.8125 278.726562 C 492.175781 278.851562 491.527344 278.917969 490.878906 278.917969 C 490.226562 278.917969 489.578125 278.851562 488.941406 278.726562 C 488.300781 278.597656 487.679688 278.410156 487.078125 278.160156 C 486.476562 277.910156 485.902344 277.605469 485.359375 277.242188 C 484.820312 276.878906 484.316406 276.46875 483.855469 276.007812 C 483.394531 275.542969 482.984375 275.042969 482.621094 274.5 C 482.257812 273.957031 481.953125 273.386719 481.703125 272.78125 C 481.453125 272.179688 481.265625 271.558594 481.140625 270.917969 C 481.011719 270.277344 480.949219 269.632812 480.949219 268.980469 C 480.949219 268.328125 481.011719 267.679688 481.140625 267.042969 C 481.265625 266.402344 481.453125 265.78125 481.703125 265.175781 C 481.953125 264.574219 482.257812 264.003906 482.621094 263.460938 C 482.984375 262.917969 483.394531 262.414062 483.855469 261.953125 C 484.316406 261.492188 484.820312 261.082031 485.359375 260.71875 C 485.902344 260.355469 486.476562 260.050781 487.078125 259.800781 C 487.679688 259.550781 488.300781 259.363281 488.941406 259.234375 C 489.578125 259.109375 490.226562 259.042969 490.878906 259.042969 C 491.527344 259.042969 492.175781 259.109375 492.8125 259.234375 C 493.453125 259.363281 494.074219 259.550781 494.675781 259.800781 C 495.277344 260.050781 495.851562 260.355469 496.394531 260.71875 C 496.933594 261.082031 497.4375 261.492188 497.898438 261.953125 C 498.359375 262.414062 498.769531 262.917969 499.132812 263.460938 C 499.496094 264.003906 499.800781 264.574219 500.050781 265.175781 C 500.300781 265.78125 500.488281 266.402344 500.613281 267.042969 C 500.742188 267.679688 500.804688 268.328125 500.804688 268.980469 Z M 500.804688 268.980469 "/>
<path style=" stroke:none;fill-rule:nonzero;fill:rgb(28.239441%,89.7995%,100%);fill-opacity:1;" d="M 335.523438 160.558594 C 335.523438 161.25 335.492188 161.9375 335.421875 162.621094 C 335.355469 163.308594 335.253906 163.988281 335.121094 164.664062 C 334.988281 165.339844 334.820312 166.007812 334.621094 166.667969 C 334.417969 167.328125 334.1875 167.976562 333.925781 168.613281 C 333.660156 169.246094 333.367188 169.871094 333.042969 170.476562 C 332.71875 171.085938 332.363281 171.675781 331.980469 172.25 C 331.597656 172.820312 331.1875 173.375 330.753906 173.90625 C 330.316406 174.441406 329.855469 174.949219 329.367188 175.4375 C 328.878906 175.925781 328.371094 176.386719 327.835938 176.824219 C 327.304688 177.261719 326.753906 177.671875 326.179688 178.054688 C 325.609375 178.4375 325.019531 178.792969 324.410156 179.117188 C 323.804688 179.441406 323.183594 179.734375 322.546875 180 C 321.910156 180.261719 321.261719 180.496094 320.601562 180.695312 C 319.945312 180.894531 319.277344 181.0625 318.601562 181.195312 C 317.925781 181.332031 317.246094 181.429688 316.558594 181.5 C 315.875 181.566406 315.1875 181.601562 314.5 181.601562 C 313.8125 181.601562 313.125 181.566406 312.4375 181.5 C 311.753906 181.429688 311.074219 181.332031 310.398438 181.195312 C 309.722656 181.0625 309.054688 180.894531 308.394531 180.695312 C 307.738281 180.496094 307.089844 180.261719 306.453125 180 C 305.816406 179.734375 305.195312 179.441406 304.589844 179.117188 C 303.980469 178.792969 303.390625 178.4375 302.820312 178.054688 C 302.246094 177.671875 301.695312 177.261719 301.160156 176.824219 C 300.628906 176.386719 300.121094 175.925781 299.632812 175.4375 C 299.144531 174.949219 298.683594 174.441406 298.246094 173.90625 C 297.808594 173.375 297.402344 172.820312 297.019531 172.25 C 296.636719 171.675781 296.28125 171.085938 295.957031 170.476562 C 295.632812 169.871094 295.339844 169.246094 295.074219 168.613281 C 294.8125 167.976562 294.578125 167.328125 294.378906 166.667969 C 294.179688 166.007812 294.011719 165.339844 293.878906 164.664062 C 293.742188 163.988281 293.644531 163.308594 293.574219 162.621094 C 293.507812 161.9375 293.472656 161.25 293.472656 160.558594 C 293.472656 159.871094 293.507812 159.183594 293.574219 158.496094 C 293.644531 157.8125 293.742188 157.128906 293.878906 156.453125 C 294.011719 155.777344 294.179688 155.109375 294.378906 154.453125 C 294.578125 153.792969 294.8125 153.144531 295.074219 152.507812 C 295.339844 151.871094 295.632812 151.25 295.957031 150.640625 C 296.28125 150.03125 296.636719 149.441406 297.019531 148.871094 C 297.402344 148.296875 297.808594 147.742188 298.246094 147.210938 C 298.683594 146.679688 299.144531 146.167969 299.632812 145.679688 C 300.121094 145.195312 300.628906 144.730469 301.160156 144.292969 C 301.695312 143.855469 302.246094 143.445312 302.820312 143.0625 C 303.390625 142.679688 303.980469 142.328125 304.589844 142.003906 C 305.195312 141.675781 305.816406 141.382812 306.453125 141.121094 C 307.089844 140.855469 307.738281 140.625 308.394531 140.425781 C 309.054688 140.222656 309.722656 140.058594 310.398438 139.921875 C 311.074219 139.789062 311.753906 139.6875 312.4375 139.621094 C 313.125 139.550781 313.8125 139.519531 314.5 139.519531 C 315.1875 139.519531 315.875 139.550781 316.558594 139.621094 C 317.246094 139.6875 317.925781 139.789062 318.601562 139.921875 C 319.277344 140.058594 319.945312 140.222656 320.601562 140.425781 C 321.261719 140.625 321.910156 140.855469 322.546875 141.121094 C 323.183594 141.382812 323.804688 141.675781 324.410156 142.003906 C 325.019531 142.328125 325.609375 142.679688 326.179688 143.0625 C 326.753906 143.445312 327.304688 143.855469 327.835938 144.292969 C 328.371094 144.730469 328.878906 145.195312 329.367188 145.679688 C 329.855469 146.167969 330.316406 146.679688 330.753906 147.210938 C 331.1875 147.742188 331.597656 148.296875 331.980469 148.871094 C 332.363281 149.441406 332.71875 150.03125 333.042969 150.640625 C 333.367188 151.25 333.660156 151.871094 333.925781 152.507812 C 334.1875 153.144531 334.417969 153.792969 334.621094 154.453125 C 334.820312 155.109375 334.988281 155.777344 335.121094 156.453125 C 335.253906 157.128906 335.355469 157.8125 335.421875 158.496094 C 335.492188 159.183594 335.523438 159.871094 335.523438 160.558594 Z M 335.523438 160.558594 "/>
<g clip-path="url(#clip2)" clip-rule="nonzero">
<path style=" stroke:none;fill-rule:nonzero;fill:rgb(6.669617%,66.668701%,83.139038%);fill-opacity:1;" d="M 298.148438 117.308594 C 298.148438 118.324219 298.097656 119.335938 297.996094 120.34375 C 297.898438 121.355469 297.75 122.355469 297.550781 123.351562 C 297.355469 124.347656 297.109375 125.328125 296.8125 126.300781 C 296.519531 127.269531 296.179688 128.226562 295.789062 129.164062 C 295.402344 130.101562 294.96875 131.015625 294.492188 131.910156 C 294.015625 132.804688 293.492188 133.675781 292.929688 134.519531 C 292.367188 135.363281 291.765625 136.175781 291.121094 136.960938 C 290.476562 137.742188 289.796875 138.496094 289.082031 139.210938 C 288.363281 139.929688 287.613281 140.609375 286.828125 141.253906 C 286.046875 141.898438 285.234375 142.5 284.390625 143.066406 C 283.546875 143.628906 282.679688 144.148438 281.785156 144.628906 C 280.890625 145.105469 279.976562 145.539062 279.039062 145.925781 C 278.101562 146.316406 277.148438 146.65625 276.179688 146.953125 C 275.207031 147.246094 274.226562 147.492188 273.230469 147.691406 C 272.238281 147.886719 271.234375 148.035156 270.226562 148.136719 C 269.21875 148.234375 268.207031 148.285156 267.191406 148.285156 C 266.179688 148.285156 265.167969 148.234375 264.160156 148.136719 C 263.148438 148.035156 262.148438 147.886719 261.152344 147.691406 C 260.160156 147.492188 259.179688 147.246094 258.207031 146.953125 C 257.238281 146.65625 256.285156 146.316406 255.347656 145.925781 C 254.410156 145.539062 253.496094 145.105469 252.601562 144.628906 C 251.707031 144.148438 250.839844 143.628906 249.996094 143.066406 C 249.152344 142.5 248.339844 141.898438 247.554688 141.253906 C 246.773438 140.609375 246.023438 139.929688 245.304688 139.210938 C 244.589844 138.496094 243.910156 137.742188 243.265625 136.960938 C 242.621094 136.175781 242.019531 135.363281 241.457031 134.519531 C 240.894531 133.675781 240.371094 132.804688 239.894531 131.910156 C 239.417969 131.015625 238.984375 130.101562 238.59375 129.164062 C 238.207031 128.226562 237.867188 127.269531 237.570312 126.300781 C 237.277344 125.328125 237.03125 124.347656 236.835938 123.351562 C 236.636719 122.355469 236.488281 121.355469 236.386719 120.34375 C 236.289062 119.335938 236.238281 118.324219 236.238281 117.308594 C 236.238281 116.292969 236.289062 115.28125 236.386719 114.273438 C 236.488281 113.261719 236.636719 112.257812 236.835938 111.265625 C 237.03125 110.269531 237.277344 109.285156 237.570312 108.316406 C 237.867188 107.34375 238.207031 106.390625 238.59375 105.453125 C 238.984375 104.515625 239.417969 103.601562 239.894531 102.707031 C 240.371094 101.808594 240.894531 100.941406 241.457031 100.097656 C 242.019531 99.253906 242.621094 98.441406 243.265625 97.65625 C 243.910156 96.871094 244.589844 96.121094 245.304688 95.402344 C 246.023438 94.6875 246.773438 94.003906 247.554688 93.363281 C 248.339844 92.71875 249.152344 92.113281 249.996094 91.550781 C 250.839844 90.988281 251.707031 90.464844 252.601562 89.988281 C 253.496094 89.511719 254.410156 89.078125 255.347656 88.6875 C 256.285156 88.300781 257.238281 87.957031 258.207031 87.664062 C 259.179688 87.371094 260.160156 87.125 261.152344 86.925781 C 262.148438 86.726562 263.148438 86.578125 264.160156 86.480469 C 265.167969 86.378906 266.179688 86.332031 267.191406 86.332031 C 268.207031 86.332031 269.21875 86.378906 270.226562 86.480469 C 271.234375 86.578125 272.238281 86.726562 273.230469 86.925781 C 274.226562 87.125 275.207031 87.371094 276.179688 87.664062 C 277.148438 87.957031 278.101562 88.300781 279.039062 88.6875 C 279.976562 89.078125 280.890625 89.511719 281.785156 89.988281 C 282.679688 90.464844 283.546875 90.988281 284.390625 91.550781 C 285.234375 92.113281 286.046875 92.71875 286.828125 93.363281 C 287.613281 94.003906 288.363281 94.6875 289.082031 95.402344 C 289.796875 96.121094 290.476562 96.871094 291.121094 97.65625 C 291.765625 98.441406 292.367188 99.253906 292.929688 100.097656 C 293.492188 100.941406 294.015625 101.808594 294.492188 102.707031 C 294.96875 103.601562 295.402344 104.515625 295.789062 105.453125 C 296.179688 106.390625 296.519531 107.34375 296.8125 108.316406 C 297.109375 109.285156 297.355469 110.269531 297.550781 111.265625 C 297.75 112.257812 297.898438 113.261719 297.996094 114.273438 C 298.097656 115.28125 298.148438 116.292969 298.148438 117.308594 Z M 298.148438 117.308594 "/>
</g>
<path style=" stroke:none;fill-rule:nonzero;fill:rgb(100%,100%,100%);fill-opacity:1;" d="M 259.015625 223.097656 C 259.015625 223.84375 258.980469 224.589844 258.90625 225.332031 C 258.832031 226.074219 258.722656 226.8125 258.578125 227.546875 C 258.433594 228.277344 258.253906 229 258.035156 229.714844 C 257.820312 230.429688 257.566406 231.132812 257.28125 231.820312 C 256.996094 232.511719 256.679688 233.183594 256.328125 233.84375 C 255.976562 234.503906 255.59375 235.140625 255.179688 235.761719 C 254.761719 236.382812 254.320312 236.980469 253.847656 237.558594 C 253.375 238.136719 252.871094 238.6875 252.34375 239.214844 C 251.816406 239.746094 251.265625 240.246094 250.6875 240.71875 C 250.113281 241.191406 249.515625 241.636719 248.894531 242.050781 C 248.273438 242.464844 247.632812 242.851562 246.976562 243.203125 C 246.320312 243.554688 245.644531 243.871094 244.957031 244.15625 C 244.265625 244.445312 243.566406 244.695312 242.851562 244.910156 C 242.136719 245.128906 241.414062 245.308594 240.683594 245.457031 C 239.953125 245.601562 239.214844 245.710938 238.472656 245.785156 C 237.730469 245.855469 236.984375 245.894531 236.238281 245.894531 C 235.492188 245.894531 234.75 245.855469 234.007812 245.785156 C 233.265625 245.710938 232.527344 245.601562 231.796875 245.457031 C 231.0625 245.308594 230.339844 245.128906 229.628906 244.910156 C 228.914062 244.695312 228.210938 244.445312 227.523438 244.15625 C 226.832031 243.871094 226.160156 243.554688 225.503906 243.203125 C 224.84375 242.851562 224.207031 242.464844 223.585938 242.050781 C 222.964844 241.636719 222.367188 241.191406 221.789062 240.71875 C 221.214844 240.246094 220.660156 239.746094 220.132812 239.214844 C 219.605469 238.6875 219.105469 238.136719 218.632812 237.558594 C 218.160156 236.980469 217.714844 236.382812 217.300781 235.761719 C 216.886719 235.140625 216.503906 234.503906 216.152344 233.84375 C 215.800781 233.183594 215.480469 232.511719 215.195312 231.820312 C 214.910156 231.132812 214.660156 230.429688 214.441406 229.714844 C 214.226562 229 214.046875 228.277344 213.898438 227.546875 C 213.753906 226.8125 213.644531 226.074219 213.570312 225.332031 C 213.5 224.589844 213.460938 223.84375 213.460938 223.097656 C 213.460938 222.351562 213.5 221.605469 213.570312 220.863281 C 213.644531 220.121094 213.753906 219.382812 213.898438 218.652344 C 214.046875 217.917969 214.226562 217.195312 214.441406 216.480469 C 214.660156 215.765625 214.910156 215.066406 215.195312 214.375 C 215.480469 213.6875 215.800781 213.011719 216.152344 212.351562 C 216.503906 211.695312 216.886719 211.054688 217.300781 210.433594 C 217.714844 209.8125 218.160156 209.214844 218.632812 208.636719 C 219.105469 208.0625 219.605469 207.507812 220.132812 206.980469 C 220.660156 206.453125 221.214844 205.953125 221.789062 205.476562 C 222.367188 205.003906 222.964844 204.558594 223.585938 204.144531 C 224.207031 203.730469 224.84375 203.347656 225.503906 202.996094 C 226.160156 202.644531 226.832031 202.324219 227.523438 202.039062 C 228.210938 201.753906 228.914062 201.503906 229.628906 201.285156 C 230.339844 201.070312 231.0625 200.886719 231.796875 200.742188 C 232.527344 200.597656 233.265625 200.488281 234.007812 200.414062 C 234.75 200.339844 235.492188 200.304688 236.238281 200.304688 C 236.984375 200.304688 237.730469 200.339844 238.472656 200.414062 C 239.214844 200.488281 239.953125 200.597656 240.683594 200.742188 C 241.414062 200.886719 242.136719 201.070312 242.851562 201.285156 C 243.566406 201.503906 244.265625 201.753906 244.957031 202.039062 C 245.644531 202.324219 246.320312 202.644531 246.976562 202.996094 C 247.632812 203.347656 248.273438 203.730469 248.894531 204.144531 C 249.515625 204.558594 250.113281 205.003906 250.6875 205.476562 C 251.265625 205.953125 251.816406 206.453125 252.34375 206.980469 C 252.871094 207.507812 253.375 208.0625 253.847656 208.636719 C 254.320312 209.214844 254.761719 209.8125 255.179688 210.433594 C 255.59375 211.054688 255.976562 211.695312 256.328125 212.351562 C 256.679688 213.011719 256.996094 213.6875 257.28125 214.375 C 257.566406 215.066406 257.820312 215.765625 258.035156 216.480469 C 258.253906 217.195312 258.433594 217.917969 258.578125 218.652344 C 258.722656 219.382812 258.832031 220.121094 258.90625 220.863281 C 258.980469 221.605469 259.015625 222.351562 259.015625 223.097656 Z M 259.015625 223.097656 "/>
<path style=" stroke:none;fill-rule:nonzero;fill:rgb(100%,100%,100%);fill-opacity:1;" d="M 405.902344 178.96875 C 405.902344 179.574219 405.871094 180.175781 405.8125 180.773438 C 405.753906 181.375 405.664062 181.972656 405.546875 182.5625 C 405.429688 183.152344 405.285156 183.738281 405.109375 184.316406 C 404.933594 184.890625 404.730469 185.457031 404.5 186.015625 C 404.269531 186.574219 404.011719 187.117188 403.726562 187.648438 C 403.445312 188.179688 403.136719 188.699219 402.800781 189.199219 C 402.464844 189.699219 402.105469 190.183594 401.726562 190.648438 C 401.34375 191.117188 400.9375 191.5625 400.511719 191.988281 C 400.085938 192.414062 399.640625 192.820312 399.175781 193.203125 C 398.707031 193.585938 398.226562 193.945312 397.722656 194.277344 C 397.222656 194.613281 396.707031 194.921875 396.175781 195.207031 C 395.644531 195.492188 395.101562 195.75 394.542969 195.980469 C 393.988281 196.210938 393.421875 196.414062 392.84375 196.589844 C 392.265625 196.761719 391.683594 196.910156 391.09375 197.027344 C 390.5 197.144531 389.90625 197.234375 389.308594 197.292969 C 388.707031 197.351562 388.105469 197.382812 387.503906 197.382812 C 386.902344 197.382812 386.300781 197.351562 385.699219 197.292969 C 385.101562 197.234375 384.503906 197.144531 383.914062 197.027344 C 383.324219 196.910156 382.738281 196.761719 382.164062 196.589844 C 381.585938 196.414062 381.019531 196.210938 380.464844 195.980469 C 379.90625 195.75 379.363281 195.492188 378.832031 195.207031 C 378.300781 194.921875 377.785156 194.613281 377.28125 194.277344 C 376.78125 193.945312 376.296875 193.585938 375.832031 193.203125 C 375.367188 192.820312 374.921875 192.414062 374.496094 191.988281 C 374.070312 191.5625 373.664062 191.117188 373.28125 190.648438 C 372.898438 190.183594 372.542969 189.699219 372.207031 189.199219 C 371.871094 188.699219 371.5625 188.179688 371.277344 187.648438 C 370.996094 187.117188 370.738281 186.574219 370.507812 186.015625 C 370.277344 185.457031 370.074219 184.890625 369.898438 184.316406 C 369.722656 183.738281 369.578125 183.152344 369.460938 182.5625 C 369.34375 181.972656 369.253906 181.375 369.195312 180.773438 C 369.136719 180.175781 369.105469 179.574219 369.105469 178.96875 C 369.105469 178.367188 369.136719 177.765625 369.195312 177.164062 C 369.253906 176.566406 369.34375 175.96875 369.460938 175.378906 C 369.578125 174.785156 369.722656 174.203125 369.898438 173.625 C 370.074219 173.050781 370.277344 172.480469 370.507812 171.925781 C 370.738281 171.367188 370.996094 170.824219 371.277344 170.292969 C 371.5625 169.757812 371.871094 169.242188 372.207031 168.742188 C 372.542969 168.242188 372.898438 167.757812 373.28125 167.289062 C 373.664062 166.824219 374.070312 166.378906 374.496094 165.953125 C 374.921875 165.523438 375.367188 165.121094 375.832031 164.738281 C 376.296875 164.355469 376.78125 163.996094 377.28125 163.660156 C 377.785156 163.328125 378.300781 163.015625 378.832031 162.734375 C 379.363281 162.449219 379.90625 162.191406 380.464844 161.960938 C 381.019531 161.730469 381.585938 161.527344 382.164062 161.351562 C 382.738281 161.175781 383.324219 161.03125 383.914062 160.914062 C 384.503906 160.796875 385.101562 160.707031 385.699219 160.648438 C 386.300781 160.589844 386.902344 160.558594 387.503906 160.558594 C 388.105469 160.558594 388.707031 160.589844 389.308594 160.648438 C 389.90625 160.707031 390.5 160.796875 391.09375 160.914062 C 391.683594 161.03125 392.265625 161.175781 392.84375 161.351562 C 393.421875 161.527344 393.988281 161.730469 394.542969 161.960938 C 395.101562 162.191406 395.644531 162.449219 396.175781 162.734375 C 396.707031 163.015625 397.222656 163.328125 397.722656 163.660156 C 398.226562 163.996094 398.707031 164.355469 399.175781 164.738281 C 399.640625 165.121094 400.085938 165.523438 400.511719 165.953125 C 400.9375 166.378906 401.34375 166.824219 401.726562 167.289062 C 402.105469 167.757812 402.464844 168.242188 402.800781 168.742188 C 403.136719 169.242188 403.445312 169.757812 403.726562 170.292969 C 404.011719 170.824219 404.269531 171.367188 404.5 171.925781 C 404.730469 172.480469 404.933594 173.050781 405.109375 173.625 C 405.285156 174.203125 405.429688 174.785156 405.546875 175.378906 C 405.664062 175.96875 405.753906 176.566406 405.8125 177.164062 C 405.871094 177.765625 405.902344 178.367188 405.902344 178.96875 Z M 405.902344 178.96875 "/>
<path style=" stroke:none;fill-rule:nonzero;fill:rgb(100%,100%,100%);fill-opacity:1;" d="M 414.367188 208.195312 C 414.367188 208.867188 414.304688 209.53125 414.171875 210.191406 C 414.042969 210.847656 413.847656 211.488281 413.589844 212.109375 C 413.335938 212.730469 413.019531 213.320312 412.644531 213.875 C 412.273438 214.433594 411.851562 214.953125 411.375 215.425781 C 410.902344 215.902344 410.382812 216.324219 409.828125 216.699219 C 409.269531 217.070312 408.679688 217.386719 408.058594 217.644531 C 407.441406 217.902344 406.800781 218.09375 406.140625 218.226562 C 405.484375 218.355469 404.820312 218.421875 404.148438 218.421875 C 403.476562 218.421875 402.8125 218.355469 402.15625 218.226562 C 401.496094 218.09375 400.855469 217.902344 400.238281 217.644531 C 399.617188 217.386719 399.027344 217.070312 398.46875 216.699219 C 397.914062 216.324219 397.394531 215.902344 396.921875 215.425781 C 396.445312 214.953125 396.023438 214.433594 395.648438 213.875 C 395.277344 213.320312 394.960938 212.730469 394.707031 212.109375 C 394.449219 211.488281 394.253906 210.847656 394.125 210.191406 C 393.992188 209.53125 393.929688 208.867188 393.929688 208.195312 C 393.929688 207.523438 393.992188 206.859375 394.125 206.199219 C 394.253906 205.539062 394.449219 204.902344 394.707031 204.28125 C 394.960938 203.660156 395.277344 203.070312 395.648438 202.511719 C 396.023438 201.953125 396.445312 201.4375 396.921875 200.960938 C 397.394531 200.488281 397.914062 200.0625 398.46875 199.691406 C 399.027344 199.316406 399.617188 199 400.238281 198.746094 C 400.855469 198.488281 401.496094 198.292969 402.15625 198.164062 C 402.8125 198.03125 403.476562 197.964844 404.148438 197.964844 C 404.820312 197.964844 405.484375 198.03125 406.140625 198.164062 C 406.800781 198.292969 407.441406 198.488281 408.058594 198.746094 C 408.679688 199 409.269531 199.316406 409.828125 199.691406 C 410.382812 200.0625 410.902344 200.488281 411.375 200.960938 C 411.851562 201.4375 412.273438 201.953125 412.644531 202.511719 C 413.019531 203.070312 413.335938 203.660156 413.589844 204.28125 C 413.847656 204.902344 414.042969 205.539062 414.171875 206.199219 C 414.304688 206.859375 414.367188 207.523438 414.367188 208.195312 Z M 414.367188 208.195312 "/>
<path style=" stroke:none;fill-rule:nonzero;fill:rgb(7.839966%,73.329163%,88.62915%);fill-opacity:1;" d="M 338.445312 115.847656 C 338.445312 116.613281 338.371094 117.375 338.21875 118.128906 C 338.070312 118.878906 337.847656 119.609375 337.554688 120.320312 C 337.261719 121.027344 336.902344 121.703125 336.476562 122.339844 C 336.050781 122.980469 335.566406 123.570312 335.023438 124.113281 C 334.480469 124.65625 333.890625 125.140625 333.253906 125.566406 C 332.617188 125.992188 331.941406 126.351562 331.234375 126.644531 C 330.527344 126.941406 329.796875 127.160156 329.042969 127.3125 C 328.289062 127.460938 327.53125 127.535156 326.765625 127.535156 C 325.996094 127.535156 325.238281 127.460938 324.484375 127.3125 C 323.734375 127.160156 323.003906 126.941406 322.292969 126.644531 C 321.585938 126.351562 320.914062 125.992188 320.273438 125.566406 C 319.636719 125.140625 319.046875 124.65625 318.503906 124.113281 C 317.960938 123.570312 317.476562 122.980469 317.050781 122.339844 C 316.625 121.703125 316.265625 121.027344 315.972656 120.320312 C 315.679688 119.609375 315.457031 118.878906 315.308594 118.128906 C 315.160156 117.375 315.082031 116.613281 315.082031 115.847656 C 315.082031 115.078125 315.160156 114.320312 315.308594 113.566406 C 315.457031 112.8125 315.679688 112.082031 315.972656 111.375 C 316.265625 110.664062 316.625 109.992188 317.050781 109.351562 C 317.476562 108.714844 317.960938 108.125 318.503906 107.582031 C 319.046875 107.039062 319.636719 106.554688 320.273438 106.128906 C 320.914062 105.699219 321.585938 105.339844 322.292969 105.046875 C 323.003906 104.753906 323.734375 104.53125 324.484375 104.382812 C 325.238281 104.230469 325.996094 104.15625 326.765625 104.15625 C 327.53125 104.15625 328.289062 104.230469 329.042969 104.382812 C 329.796875 104.53125 330.527344 104.753906 331.234375 105.046875 C 331.941406 105.339844 332.617188 105.699219 333.253906 106.128906 C 333.890625 106.554688 334.480469 107.039062 335.023438 107.582031 C 335.566406 108.125 336.050781 108.714844 336.476562 109.351562 C 336.902344 109.992188 337.261719 110.664062 337.554688 111.375 C 337.847656 112.082031 338.070312 112.8125 338.21875 113.566406 C 338.371094 114.320312 338.445312 115.078125 338.445312 115.847656 Z M 338.445312 115.847656 "/>
<path style=" stroke:none;fill-rule:nonzero;fill:rgb(7.839966%,73.329163%,88.62915%);fill-opacity:1;" d="M 558.625 248.816406 C 558.625 249.582031 558.550781 250.34375 558.398438 251.097656 C 558.25 251.847656 558.027344 252.578125 557.734375 253.289062 C 557.441406 253.996094 557.082031 254.671875 556.65625 255.308594 C 556.230469 255.949219 555.746094 256.539062 555.203125 257.082031 C 554.660156 257.625 554.070312 258.109375 553.433594 258.535156 C 552.796875 258.960938 552.121094 259.320312 551.414062 259.617188 C 550.707031 259.910156 549.976562 260.128906 549.222656 260.28125 C 548.46875 260.429688 547.710938 260.503906 546.945312 260.503906 C 546.175781 260.503906 545.417969 260.429688 544.664062 260.28125 C 543.914062 260.128906 543.183594 259.910156 542.472656 259.617188 C 541.765625 259.320312 541.09375 258.960938 540.453125 258.535156 C 539.816406 258.109375 539.226562 257.625 538.683594 257.082031 C 538.140625 256.539062 537.65625 255.949219 537.230469 255.308594 C 536.804688 254.671875 536.445312 253.996094 536.152344 253.289062 C 535.859375 252.578125 535.636719 251.847656 535.488281 251.097656 C 535.339844 250.34375 535.261719 249.582031 535.261719 248.816406 C 535.261719 248.046875 535.339844 247.289062 535.488281 246.535156 C 535.636719 245.78125 535.859375 245.050781 536.152344 244.34375 C 536.445312 243.632812 536.804688 242.960938 537.230469 242.320312 C 537.65625 241.683594 538.140625 241.09375 538.683594 240.550781 C 539.226562 240.007812 539.816406 239.523438 540.453125 239.097656 C 541.09375 238.667969 541.765625 238.308594 542.472656 238.015625 C 543.183594 237.722656 543.914062 237.5 544.664062 237.351562 C 545.417969 237.199219 546.175781 237.125 546.945312 237.125 C 547.710938 237.125 548.46875 237.199219 549.222656 237.351562 C 549.976562 237.5 550.707031 237.722656 551.414062 238.015625 C 552.121094 238.308594 552.796875 238.667969 553.433594 239.097656 C 554.070312 239.523438 554.660156 240.007812 555.203125 240.550781 C 555.746094 241.09375 556.230469 241.683594 556.65625 242.320312 C 557.082031 242.960938 557.441406 243.632812 557.734375 244.34375 C 558.027344 245.050781 558.25 245.78125 558.398438 246.535156 C 558.550781 247.289062 558.625 248.046875 558.625 248.816406 Z M 558.625 248.816406 "/>
<path style=" stroke:none;fill-rule:nonzero;fill:rgb(0%,49.409485%,69.40918%);fill-opacity:1;" d="M 570.597656 292.359375 C 570.597656 293.132812 570.558594 293.90625 570.484375 294.679688 C 570.40625 295.449219 570.292969 296.21875 570.144531 296.976562 C 569.992188 297.738281 569.804688 298.488281 569.578125 299.230469 C 569.355469 299.972656 569.09375 300.703125 568.796875 301.417969 C 568.5 302.132812 568.167969 302.835938 567.804688 303.519531 C 567.4375 304.203125 567.042969 304.867188 566.609375 305.511719 C 566.179688 306.15625 565.71875 306.777344 565.226562 307.375 C 564.738281 307.976562 564.21875 308.550781 563.667969 309.097656 C 563.121094 309.644531 562.546875 310.164062 561.949219 310.65625 C 561.351562 311.148438 560.730469 311.609375 560.085938 312.042969 C 559.441406 312.472656 558.777344 312.871094 558.09375 313.234375 C 557.410156 313.601562 556.710938 313.933594 555.996094 314.230469 C 555.28125 314.523438 554.550781 314.785156 553.808594 315.011719 C 553.070312 315.234375 552.316406 315.425781 551.558594 315.574219 C 550.796875 315.726562 550.035156 315.839844 549.261719 315.917969 C 548.492188 315.992188 547.71875 316.03125 546.945312 316.03125 C 546.167969 316.03125 545.398438 315.992188 544.625 315.917969 C 543.855469 315.839844 543.089844 315.726562 542.328125 315.574219 C 541.570312 315.425781 540.820312 315.234375 540.078125 315.011719 C 539.335938 314.785156 538.609375 314.523438 537.890625 314.230469 C 537.175781 313.933594 536.476562 313.601562 535.792969 313.234375 C 535.109375 312.871094 534.445312 312.472656 533.804688 312.042969 C 533.160156 311.609375 532.539062 311.148438 531.9375 310.65625 C 531.339844 310.164062 530.765625 309.644531 530.21875 309.097656 C 529.671875 308.550781 529.152344 307.976562 528.660156 307.375 C 528.167969 306.777344 527.707031 306.15625 527.277344 305.511719 C 526.847656 304.867188 526.449219 304.203125 526.082031 303.519531 C 525.71875 302.835938 525.386719 302.132812 525.089844 301.417969 C 524.792969 300.703125 524.535156 299.972656 524.308594 299.230469 C 524.085938 298.488281 523.894531 297.738281 523.746094 296.976562 C 523.59375 296.21875 523.480469 295.449219 523.40625 294.679688 C 523.328125 293.90625 523.289062 293.132812 523.289062 292.359375 C 523.289062 291.582031 523.328125 290.808594 523.40625 290.039062 C 523.480469 289.265625 523.59375 288.5 523.746094 287.742188 C 523.894531 286.980469 524.085938 286.230469 524.308594 285.488281 C 524.535156 284.746094 524.792969 284.015625 525.089844 283.300781 C 525.386719 282.585938 525.71875 281.882812 526.082031 281.199219 C 526.449219 280.515625 526.847656 279.851562 527.277344 279.207031 C 527.707031 278.5625 528.167969 277.941406 528.660156 277.34375 C 529.152344 276.742188 529.671875 276.167969 530.21875 275.621094 C 530.765625 275.074219 531.339844 274.554688 531.9375 274.0625 C 532.539062 273.570312 533.160156 273.109375 533.804688 272.675781 C 534.445312 272.246094 535.109375 271.847656 535.792969 271.484375 C 536.476562 271.117188 537.175781 270.785156 537.890625 270.488281 C 538.609375 270.191406 539.335938 269.933594 540.078125 269.707031 C 540.820312 269.480469 541.570312 269.292969 542.328125 269.144531 C 543.089844 268.992188 543.855469 268.878906 544.625 268.800781 C 545.398438 268.726562 546.167969 268.6875 546.945312 268.6875 C 547.71875 268.6875 548.492188 268.726562 549.261719 268.800781 C 550.035156 268.878906 550.796875 268.992188 551.558594 269.144531 C 552.316406 269.292969 553.070312 269.480469 553.808594 269.707031 C 554.550781 269.933594 555.28125 270.191406 555.996094 270.488281 C 556.710938 270.785156 557.410156 271.117188 558.09375 271.484375 C 558.777344 271.847656 559.441406 272.246094 560.085938 272.675781 C 560.730469 273.109375 561.351562 273.570312 561.949219 274.0625 C 562.546875 274.554688 563.121094 275.074219 563.667969 275.621094 C 564.21875 276.167969 564.738281 276.742188 565.226562 277.34375 C 565.71875 277.941406 566.179688 278.5625 566.609375 279.207031 C 567.042969 279.851562 567.4375 280.515625 567.804688 281.199219 C 568.167969 281.882812 568.5 282.585938 568.796875 283.300781 C 569.09375 284.015625 569.355469 284.746094 569.578125 285.488281 C 569.804688 286.230469 569.992188 286.980469 570.144531 287.742188 C 570.292969 288.5 570.40625 289.265625 570.484375 290.039062 C 570.558594 290.808594 570.597656 291.582031 570.597656 292.359375 Z M 570.597656 292.359375 "/>
<path style=" stroke:none;fill-rule:nonzero;fill:rgb(0%,65.098572%,87.449646%);fill-opacity:1;" d="M 204.992188 176.339844 C 204.992188 191.246094 192.730469 203.519531 177.835938 203.519531 C 162.945312 203.519531 150.679688 191.246094 150.679688 176.339844 C 150.679688 161.4375 162.945312 149.160156 177.835938 149.160156 C 192.730469 149.160156 204.992188 161.4375 204.992188 176.339844 Z M 204.992188 176.339844 "/>
<path style=" stroke:none;fill-rule:nonzero;fill:rgb(28.239441%,89.7995%,100%);fill-opacity:1;" d="M 527.964844 207.023438 C 527.964844 208.242188 527.902344 209.453125 527.785156 210.664062 C 527.664062 211.871094 527.488281 213.074219 527.25 214.265625 C 527.011719 215.457031 526.71875 216.636719 526.367188 217.800781 C 526.011719 218.960938 525.605469 220.105469 525.140625 221.226562 C 524.675781 222.351562 524.15625 223.449219 523.582031 224.519531 C 523.011719 225.59375 522.386719 226.632812 521.710938 227.644531 C 521.039062 228.65625 520.316406 229.628906 519.542969 230.570312 C 518.773438 231.511719 517.960938 232.410156 517.101562 233.269531 C 516.242188 234.128906 515.34375 234.945312 514.402344 235.714844 C 513.464844 236.484375 512.492188 237.210938 511.480469 237.882812 C 510.472656 238.558594 509.429688 239.183594 508.359375 239.757812 C 507.289062 240.332031 506.191406 240.847656 505.070312 241.316406 C 503.945312 241.78125 502.804688 242.1875 501.640625 242.542969 C 500.480469 242.894531 499.304688 243.1875 498.113281 243.425781 C 496.921875 243.664062 495.722656 243.84375 494.511719 243.960938 C 493.304688 244.082031 492.089844 244.140625 490.878906 244.140625 C 489.664062 244.140625 488.449219 244.082031 487.242188 243.960938 C 486.035156 243.84375 484.832031 243.664062 483.640625 243.425781 C 482.449219 243.1875 481.273438 242.894531 480.113281 242.542969 C 478.949219 242.1875 477.808594 241.78125 476.683594 241.316406 C 475.5625 240.847656 474.464844 240.332031 473.394531 239.757812 C 472.324219 239.183594 471.28125 238.558594 470.273438 237.882812 C 469.261719 237.210938 468.289062 236.484375 467.351562 235.714844 C 466.410156 234.945312 465.511719 234.128906 464.652344 233.269531 C 463.792969 232.410156 462.980469 231.511719 462.210938 230.570312 C 461.4375 229.628906 460.714844 228.65625 460.042969 227.644531 C 459.367188 226.632812 458.742188 225.59375 458.171875 224.519531 C 457.597656 223.449219 457.078125 222.351562 456.613281 221.226562 C 456.148438 220.105469 455.742188 218.960938 455.386719 217.800781 C 455.035156 216.636719 454.742188 215.457031 454.503906 214.265625 C 454.265625 213.074219 454.089844 211.871094 453.96875 210.664062 C 453.851562 209.453125 453.792969 208.242188 453.792969 207.023438 C 453.792969 205.808594 453.851562 204.597656 453.96875 203.386719 C 454.089844 202.179688 454.265625 200.976562 454.503906 199.785156 C 454.742188 198.59375 455.035156 197.414062 455.386719 196.25 C 455.742188 195.089844 456.148438 193.945312 456.613281 192.820312 C 457.078125 191.699219 457.597656 190.601562 458.171875 189.53125 C 458.742188 188.457031 459.367188 187.417969 460.042969 186.40625 C 460.714844 185.394531 461.4375 184.417969 462.210938 183.480469 C 462.980469 182.539062 463.792969 181.640625 464.652344 180.78125 C 465.511719 179.921875 466.410156 179.105469 467.351562 178.335938 C 468.289062 177.5625 469.261719 176.839844 470.273438 176.164062 C 471.28125 175.492188 472.324219 174.867188 473.394531 174.292969 C 474.464844 173.71875 475.5625 173.203125 476.683594 172.734375 C 477.808594 172.269531 478.949219 171.863281 480.113281 171.507812 C 481.273438 171.15625 482.449219 170.859375 483.640625 170.625 C 484.832031 170.386719 486.035156 170.207031 487.242188 170.089844 C 488.449219 169.96875 489.664062 169.910156 490.878906 169.910156 C 492.089844 169.910156 493.304688 169.96875 494.511719 170.089844 C 495.722656 170.207031 496.921875 170.386719 498.113281 170.625 C 499.304688 170.859375 500.480469 171.15625 501.640625 171.507812 C 502.804688 171.863281 503.945312 172.269531 505.070312 172.734375 C 506.191406 173.203125 507.289062 173.71875 508.359375 174.292969 C 509.429688 174.867188 510.472656 175.492188 511.480469 176.164062 C 512.492188 176.839844 513.464844 177.5625 514.402344 178.335938 C 515.34375 179.105469 516.242188 179.921875 517.101562 180.78125 C 517.960938 181.640625 518.773438 182.539062 519.542969 183.480469 C 520.316406 184.417969 521.039062 185.394531 521.710938 186.40625 C 522.386719 187.417969 523.011719 188.457031 523.582031 189.53125 C 524.15625 190.601562 524.675781 191.699219 525.140625 192.820312 C 525.605469 193.945312 526.011719 195.089844 526.367188 196.25 C 526.71875 197.414062 527.011719 198.59375 527.25 199.785156 C 527.488281 200.976562 527.664062 202.179688 527.785156 203.386719 C 527.902344 204.597656 527.964844 205.808594 527.964844 207.023438 Z M 527.964844 207.023438 "/>
<g clip-path="url(#clip3)" clip-rule="nonzero">
<path style=" stroke:none;fill-rule:nonzero;fill:rgb(0%,44.309998%,68.629456%);fill-opacity:1;" d="M 190.976562 375.648438 C 190.976562 427.375 148.925781 469.457031 97.238281 469.457031 C 45.554688 469.457031 3.503906 427.375 3.503906 375.648438 C 3.503906 323.921875 45.554688 281.839844 97.238281 281.839844 C 148.925781 281.839844 190.976562 323.921875 190.976562 375.648438 Z M 190.976562 375.648438 "/>
</g>
<path style=" stroke:none;fill-rule:nonzero;fill:rgb(100%,100%,100%);fill-opacity:1;" d="M 560.667969 405.164062 C 555.121094 404.578125 549.570312 403.117188 545.777344 399.320312 C 543.730469 397.273438 542.5625 394.058594 544.023438 391.429688 C 545.191406 389.675781 547.234375 389.089844 548.988281 388.507812 C 555.414062 386.460938 561.542969 384.414062 567.96875 382.660156 C 567.96875 382.660156 567.675781 382.367188 567.675781 382.367188 C 567.675781 382.367188 567.675781 382.367188 564.464844 366.296875 C 561.253906 350.222656 506.0625 333.273438 478.320312 330.058594 C 450.578125 326.84375 436.855469 323.042969 436.855469 323.042969 C 379.910156 278.332031 334.941406 271.316406 334.941406 271.316406 C 214.921875 257.875 180.171875 264.597656 134.035156 285.929688 C 119.726562 292.359375 106.292969 300.835938 93.445312 309.601562 C 87.019531 313.984375 78.84375 318.367188 74.753906 325.089844 C 70.957031 330.933594 69.207031 337.363281 68.332031 344.085938 C 67.746094 348.46875 67.746094 352.851562 67.746094 357.527344 C 67.746094 360.742188 68.621094 364.25 66.285156 366.878906 C 64.242188 369.21875 60.445312 370.09375 58.402344 372.433594 C 56.066406 374.769531 54.898438 377.984375 54.605469 381.199219 C 54.3125 385.875 54.605469 392.011719 56.066406 398.441406 C 59.570312 413.636719 69.5 427.375 69.5 427.375 L 187.765625 436.726562 C 187.765625 436.726562 414.078125 434.679688 487.664062 436.433594 C 561.253906 438.1875 570.597656 429.128906 570.597656 429.128906 C 570.597656 429.128906 572.640625 414.808594 573.808594 404.285156 C 569.722656 405.457031 565.339844 405.457031 560.667969 405.164062 Z M 560.667969 405.164062 "/>
<path style=" stroke:none;fill-rule:nonzero;fill:rgb(100%,100%,100%);fill-opacity:1;" d="M 544.316406 391.429688 C 542.855469 393.765625 544.023438 396.980469 546.066406 399.320312 C 549.863281 403.410156 555.414062 404.871094 560.960938 405.164062 C 565.339844 405.457031 570.011719 405.457031 574.394531 404.578125 C 574.6875 400.78125 574.976562 397.273438 574.976562 395.519531 C 574.976562 389.382812 569.429688 383.828125 568.261719 382.660156 C 561.835938 384.707031 555.703125 386.753906 549.28125 388.507812 C 547.234375 389.089844 545.191406 389.96875 544.316406 391.429688 Z M 544.316406 391.429688 "/>
<path style=" stroke:none;fill-rule:nonzero;fill:rgb(100%,100%,100%);fill-opacity:1;" d="M 531.757812 419.484375 C 531.757812 421.160156 531.675781 422.828125 531.511719 424.496094 C 531.347656 426.164062 531.105469 427.816406 530.777344 429.460938 C 530.449219 431.101562 530.042969 432.726562 529.558594 434.328125 C 529.074219 435.933594 528.507812 437.507812 527.871094 439.054688 C 527.230469 440.601562 526.515625 442.113281 525.726562 443.589844 C 524.9375 445.070312 524.078125 446.503906 523.148438 447.894531 C 522.21875 449.289062 521.222656 450.632812 520.160156 451.925781 C 519.097656 453.222656 517.976562 454.460938 516.792969 455.644531 C 515.609375 456.832031 514.371094 457.953125 513.074219 459.015625 C 511.78125 460.078125 510.4375 461.074219 509.046875 462.007812 C 507.65625 462.9375 506.222656 463.796875 504.746094 464.585938 C 503.269531 465.375 501.757812 466.089844 500.210938 466.730469 C 498.667969 467.375 497.09375 467.9375 495.492188 468.421875 C 493.890625 468.910156 492.269531 469.316406 490.625 469.640625 C 488.984375 469.96875 487.332031 470.214844 485.664062 470.378906 C 484 470.542969 482.332031 470.625 480.65625 470.625 C 478.984375 470.625 477.3125 470.542969 475.648438 470.378906 C 473.980469 470.214844 472.328125 469.96875 470.6875 469.640625 C 469.046875 469.316406 467.421875 468.910156 465.820312 468.421875 C 464.21875 467.9375 462.648438 467.375 461.101562 466.730469 C 459.554688 466.089844 458.042969 465.375 456.566406 464.585938 C 455.089844 463.796875 453.65625 462.9375 452.265625 462.007812 C 450.875 461.074219 449.53125 460.078125 448.238281 459.015625 C 446.945312 457.953125 445.703125 456.832031 444.519531 455.644531 C 443.339844 454.460938 442.214844 453.222656 441.152344 451.925781 C 440.089844 450.632812 439.097656 449.289062 438.167969 447.894531 C 437.234375 446.503906 436.375 445.070312 435.585938 443.589844 C 434.800781 442.113281 434.085938 440.601562 433.445312 439.054688 C 432.804688 437.507812 432.238281 435.933594 431.753906 434.328125 C 431.269531 432.726562 430.863281 431.101562 430.535156 429.460938 C 430.210938 427.816406 429.964844 426.164062 429.800781 424.496094 C 429.636719 422.828125 429.554688 421.160156 429.554688 419.484375 C 429.554688 417.808594 429.636719 416.136719 429.800781 414.46875 C 429.964844 412.804688 430.210938 411.148438 430.535156 409.507812 C 430.863281 407.863281 431.269531 406.242188 431.753906 404.636719 C 432.238281 403.035156 432.804688 401.460938 433.445312 399.910156 C 434.085938 398.363281 434.800781 396.851562 435.585938 395.375 C 436.375 393.898438 437.234375 392.464844 438.167969 391.070312 C 439.097656 389.675781 440.089844 388.332031 441.152344 387.039062 C 442.214844 385.746094 443.339844 384.503906 444.519531 383.320312 C 445.703125 382.136719 446.945312 381.011719 448.238281 379.949219 C 449.53125 378.886719 450.875 377.890625 452.265625 376.960938 C 453.65625 376.03125 455.089844 375.167969 456.566406 374.378906 C 458.042969 373.589844 459.554688 372.875 461.101562 372.234375 C 462.648438 371.59375 464.21875 371.03125 465.820312 370.542969 C 467.421875 370.058594 469.046875 369.652344 470.6875 369.324219 C 472.328125 368.996094 473.980469 368.75 475.648438 368.585938 C 477.3125 368.421875 478.984375 368.339844 480.65625 368.339844 C 482.332031 368.339844 484 368.421875 485.664062 368.585938 C 487.332031 368.75 488.984375 368.996094 490.625 369.324219 C 492.269531 369.652344 493.890625 370.058594 495.492188 370.542969 C 497.09375 371.03125 498.667969 371.59375 500.210938 372.234375 C 501.757812 372.875 503.269531 373.589844 504.746094 374.378906 C 506.222656 375.167969 507.65625 376.03125 509.046875 376.960938 C 510.4375 377.890625 511.78125 378.886719 513.074219 379.949219 C 514.371094 381.011719 515.609375 382.136719 516.792969 383.320312 C 517.976562 384.503906 519.097656 385.746094 520.160156 387.039062 C 521.222656 388.332031 522.21875 389.675781 523.148438 391.070312 C 524.078125 392.464844 524.9375 393.898438 525.726562 395.375 C 526.515625 396.851562 527.230469 398.363281 527.871094 399.910156 C 528.507812 401.460938 529.074219 403.035156 529.558594 404.636719 C 530.042969 406.242188 530.449219 407.863281 530.777344 409.507812 C 531.105469 411.148438 531.347656 412.804688 531.511719 414.46875 C 531.675781 416.136719 531.757812 417.808594 531.757812 419.484375 Z M 531.757812 419.484375 "/>
<g clip-path="url(#clip4)" clip-rule="nonzero">
<path style=" stroke:none;fill-rule:nonzero;fill:rgb(100%,100%,100%);fill-opacity:1;" d="M 184.84375 425.328125 C 184.84375 427.042969 184.761719 428.75 184.59375 430.457031 C 184.425781 432.160156 184.175781 433.851562 183.839844 435.535156 C 183.507812 437.214844 183.089844 438.875 182.59375 440.511719 C 182.097656 442.152344 181.519531 443.761719 180.867188 445.347656 C 180.210938 446.929688 179.480469 448.476562 178.671875 449.988281 C 177.867188 451.5 176.988281 452.964844 176.035156 454.390625 C 175.085938 455.816406 174.066406 457.1875 172.980469 458.511719 C 171.894531 459.839844 170.746094 461.105469 169.535156 462.316406 C 168.324219 463.527344 167.058594 464.679688 165.734375 465.765625 C 164.410156 466.851562 163.039062 467.871094 161.613281 468.824219 C 160.191406 469.773438 158.722656 470.65625 157.214844 471.460938 C 155.703125 472.269531 154.160156 473 152.578125 473.65625 C 150.996094 474.3125 149.386719 474.890625 147.746094 475.386719 C 146.109375 475.882812 144.449219 476.300781 142.769531 476.632812 C 141.09375 476.96875 139.402344 477.21875 137.699219 477.386719 C 135.992188 477.554688 134.285156 477.640625 132.574219 477.640625 C 130.863281 477.640625 129.152344 477.554688 127.449219 477.386719 C 125.746094 477.21875 124.054688 476.96875 122.375 476.632812 C 120.699219 476.300781 119.039062 475.882812 117.402344 475.386719 C 115.761719 474.890625 114.152344 474.3125 112.570312 473.65625 C 110.988281 473 109.441406 472.269531 107.933594 471.460938 C 106.421875 470.65625 104.957031 469.773438 103.535156 468.824219 C 102.109375 467.871094 100.738281 466.851562 99.414062 465.765625 C 98.089844 464.679688 96.824219 463.527344 95.613281 462.316406 C 94.402344 461.105469 93.253906 459.839844 92.167969 458.511719 C 91.082031 457.1875 90.0625 455.816406 89.113281 454.390625 C 88.160156 452.964844 87.28125 451.5 86.476562 449.988281 C 85.667969 448.476562 84.9375 446.929688 84.28125 445.347656 C 83.625 443.761719 83.050781 442.152344 82.554688 440.511719 C 82.058594 438.875 81.640625 437.214844 81.308594 435.535156 C 80.972656 433.851562 80.722656 432.160156 80.554688 430.457031 C 80.386719 428.75 80.304688 427.042969 80.304688 425.328125 C 80.304688 423.613281 80.386719 421.90625 80.554688 420.199219 C 80.722656 418.496094 80.972656 416.804688 81.308594 415.121094 C 81.640625 413.441406 82.058594 411.78125 82.554688 410.144531 C 83.050781 408.503906 83.625 406.890625 84.28125 405.308594 C 84.9375 403.726562 85.667969 402.179688 86.476562 400.667969 C 87.28125 399.15625 88.160156 397.691406 89.113281 396.265625 C 90.0625 394.839844 91.082031 393.464844 92.167969 392.140625 C 93.253906 390.816406 94.402344 389.550781 95.613281 388.339844 C 96.824219 387.128906 98.089844 385.976562 99.414062 384.890625 C 100.738281 383.804688 102.109375 382.785156 103.535156 381.832031 C 104.957031 380.882812 106.421875 380 107.933594 379.195312 C 109.441406 378.386719 110.988281 377.65625 112.570312 377 C 114.152344 376.34375 115.761719 375.765625 117.402344 375.269531 C 119.039062 374.773438 120.699219 374.355469 122.375 374.023438 C 124.054688 373.6875 125.746094 373.4375 127.449219 373.269531 C 129.152344 373.101562 130.863281 373.015625 132.574219 373.015625 C 134.285156 373.015625 135.992188 373.101562 137.699219 373.269531 C 139.402344 373.4375 141.09375 373.6875 142.769531 374.023438 C 144.449219 374.355469 146.109375 374.773438 147.746094 375.269531 C 149.386719 375.765625 150.996094 376.34375 152.578125 377 C 154.160156 377.65625 155.703125 378.386719 157.214844 379.195312 C 158.722656 380 160.191406 380.882812 161.613281 381.832031 C 163.039062 382.785156 164.410156 383.804688 165.734375 384.890625 C 167.058594 385.976562 168.324219 387.128906 169.535156 388.339844 C 170.746094 389.550781 171.894531 390.816406 172.980469 392.140625 C 174.066406 393.464844 175.085938 394.839844 176.035156 396.265625 C 176.988281 397.691406 177.867188 399.15625 178.671875 400.667969 C 179.480469 402.179688 180.210938 403.726562 180.867188 405.308594 C 181.519531 406.890625 182.097656 408.503906 182.59375 410.144531 C 183.089844 411.78125 183.507812 413.441406 183.839844 415.121094 C 184.175781 416.804688 184.425781 418.496094 184.59375 420.199219 C 184.761719 421.90625 184.84375 423.613281 184.84375 425.328125 Z M 184.84375 425.328125 "/>
</g>
<path style=" stroke:none;fill-rule:nonzero;fill:rgb(7.839966%,73.329163%,88.62915%);fill-opacity:1;" d="M 190.976562 281.546875 C 175.207031 283.007812 159.4375 287.390625 147.757812 298.203125 C 147.757812 298.203125 147.464844 298.496094 147.464844 298.496094 C 144.839844 300.835938 142.503906 303.464844 140.167969 305.800781 C 135.785156 310.476562 138.121094 318.367188 144.253906 320.121094 C 152.429688 322.460938 163.234375 324.214844 174.917969 324.214844 C 196.523438 324.214844 365.019531 335.902344 413.492188 335.902344 C 417.875 335.902344 419.917969 330.351562 416.414062 327.429688 C 402.6875 316.03125 367.9375 291.191406 334.066406 284.46875 C 298.148438 277.164062 232.734375 277.453125 190.976562 281.546875 Z M 190.976562 281.546875 "/>
<path style=" stroke:none;fill-rule:nonzero;fill:rgb(100%,100%,100%);fill-opacity:1;" d="M 202.367188 411.59375 C 220.46875 410.425781 238.285156 410.132812 256.386719 410.425781 L 310.410156 411.300781 L 364.433594 411.886719 C 382.539062 411.886719 400.351562 412.175781 418.164062 411.59375 L 418.75 417.4375 C 409.695312 418.605469 400.644531 419.191406 391.589844 419.484375 C 382.539062 420.066406 373.488281 420.359375 364.433594 420.359375 C 346.328125 420.652344 328.222656 420.945312 310.410156 420.945312 C 292.304688 420.945312 274.492188 420.945312 256.386719 420.652344 C 238.285156 420.359375 220.46875 419.484375 202.367188 417.4375 Z M 202.367188 411.59375 "/>
<path style=" stroke:none;fill-rule:nonzero;fill:rgb(7.839966%,73.329163%,88.62915%);fill-opacity:1;" d="M 519.785156 420.359375 C 519.785156 421.640625 519.722656 422.921875 519.597656 424.199219 C 519.472656 425.476562 519.285156 426.742188 519.035156 428 C 518.785156 429.257812 518.472656 430.5 518.101562 431.726562 C 517.730469 432.953125 517.296875 434.160156 516.808594 435.347656 C 516.316406 436.53125 515.769531 437.6875 515.167969 438.820312 C 514.5625 439.949219 513.902344 441.050781 513.191406 442.117188 C 512.480469 443.183594 511.71875 444.210938 510.90625 445.203125 C 510.089844 446.195312 509.230469 447.144531 508.324219 448.050781 C 507.417969 448.957031 506.472656 449.816406 505.480469 450.632812 C 504.488281 451.445312 503.460938 452.207031 502.394531 452.921875 C 501.332031 453.632812 500.234375 454.292969 499.101562 454.894531 C 497.972656 455.5 496.816406 456.046875 495.632812 456.539062 C 494.445312 457.03125 493.242188 457.460938 492.015625 457.832031 C 490.789062 458.207031 489.546875 458.515625 488.289062 458.765625 C 487.035156 459.019531 485.765625 459.207031 484.492188 459.332031 C 483.214844 459.457031 481.9375 459.519531 480.65625 459.519531 C 479.375 459.519531 478.097656 459.457031 476.820312 459.332031 C 475.546875 459.207031 474.28125 459.019531 473.023438 458.765625 C 471.765625 458.515625 470.523438 458.207031 469.296875 457.832031 C 468.070312 457.460938 466.867188 457.03125 465.683594 456.539062 C 464.496094 456.046875 463.339844 455.5 462.210938 454.894531 C 461.082031 454.292969 459.984375 453.632812 458.917969 452.921875 C 457.851562 452.207031 456.824219 451.445312 455.832031 450.632812 C 454.84375 449.816406 453.894531 448.957031 452.988281 448.050781 C 452.082031 447.144531 451.222656 446.195312 450.410156 445.203125 C 449.59375 444.210938 448.832031 443.183594 448.121094 442.117188 C 447.410156 441.050781 446.75 439.949219 446.148438 438.820312 C 445.542969 437.6875 444.996094 436.53125 444.503906 435.347656 C 444.015625 434.160156 443.582031 432.953125 443.210938 431.726562 C 442.839844 430.5 442.527344 429.257812 442.277344 428 C 442.027344 426.742188 441.839844 425.476562 441.714844 424.199219 C 441.589844 422.921875 441.527344 421.640625 441.527344 420.359375 C 441.527344 419.078125 441.589844 417.796875 441.714844 416.523438 C 441.839844 415.246094 442.027344 413.976562 442.277344 412.71875 C 442.527344 411.460938 442.839844 410.21875 443.210938 408.992188 C 443.582031 407.765625 444.015625 406.558594 444.503906 405.375 C 444.996094 404.1875 445.542969 403.03125 446.148438 401.898438 C 446.75 400.769531 447.410156 399.671875 448.121094 398.605469 C 448.832031 397.539062 449.59375 396.507812 450.410156 395.515625 C 451.222656 394.527344 452.082031 393.578125 452.988281 392.667969 C 453.894531 391.761719 454.84375 390.902344 455.832031 390.089844 C 456.824219 389.273438 457.851562 388.511719 458.917969 387.800781 C 459.984375 387.085938 461.082031 386.429688 462.210938 385.824219 C 463.339844 385.21875 464.496094 384.671875 465.683594 384.179688 C 466.867188 383.691406 468.070312 383.257812 469.296875 382.886719 C 470.523438 382.515625 471.765625 382.203125 473.023438 381.953125 C 474.28125 381.703125 475.546875 381.515625 476.820312 381.386719 C 478.097656 381.261719 479.375 381.199219 480.65625 381.199219 C 481.9375 381.199219 483.214844 381.261719 484.492188 381.386719 C 485.765625 381.515625 487.035156 381.703125 488.289062 381.953125 C 489.546875 382.203125 490.789062 382.515625 492.015625 382.886719 C 493.242188 383.257812 494.445312 383.691406 495.632812 384.179688 C 496.816406 384.671875 497.972656 385.21875 499.101562 385.824219 C 500.234375 386.429688 501.332031 387.085938 502.394531 387.800781 C 503.460938 388.511719 504.488281 389.273438 505.480469 390.089844 C 506.472656 390.902344 507.417969 391.761719 508.324219 392.667969 C 509.230469 393.578125 510.089844 394.527344 510.90625 395.515625 C 511.71875 396.507812 512.480469 397.539062 513.191406 398.605469 C 513.902344 399.671875 514.5625 400.769531 515.167969 401.898438 C 515.769531 403.03125 516.316406 404.1875 516.808594 405.375 C 517.296875 406.558594 517.730469 407.765625 518.101562 408.992188 C 518.472656 410.21875 518.785156 411.460938 519.035156 412.71875 C 519.285156 413.976562 519.472656 415.246094 519.597656 416.523438 C 519.722656 417.796875 519.785156 419.078125 519.785156 420.359375 Z M 519.785156 420.359375 "/>
<path style=" stroke:none;fill-rule:nonzero;fill:rgb(7.839966%,73.329163%,88.62915%);fill-opacity:1;" d="M 171.703125 425.328125 C 171.703125 426.609375 171.640625 427.890625 171.515625 429.167969 C 171.390625 430.441406 171.203125 431.710938 170.953125 432.96875 C 170.703125 434.226562 170.390625 435.46875 170.019531 436.695312 C 169.648438 437.921875 169.214844 439.128906 168.726562 440.3125 C 168.234375 441.5 167.6875 442.65625 167.082031 443.789062 C 166.480469 444.917969 165.820312 446.019531 165.109375 447.085938 C 164.398438 448.152344 163.636719 449.179688 162.820312 450.171875 C 162.007812 451.164062 161.148438 452.113281 160.242188 453.019531 C 159.335938 453.925781 158.386719 454.785156 157.398438 455.597656 C 156.40625 456.414062 155.378906 457.175781 154.3125 457.886719 C 153.246094 458.601562 152.148438 459.257812 151.019531 459.863281 C 149.890625 460.46875 148.730469 461.015625 147.546875 461.507812 C 146.363281 461.996094 145.160156 462.429688 143.933594 462.800781 C 142.707031 463.175781 141.464844 463.484375 140.207031 463.734375 C 138.949219 463.984375 137.683594 464.175781 136.410156 464.300781 C 135.132812 464.425781 133.855469 464.488281 132.574219 464.488281 C 131.292969 464.488281 130.015625 464.425781 128.738281 464.300781 C 127.464844 464.175781 126.195312 463.984375 124.941406 463.734375 C 123.683594 463.484375 122.441406 463.175781 121.214844 462.800781 C 119.988281 462.429688 118.785156 461.996094 117.597656 461.507812 C 116.414062 461.015625 115.257812 460.46875 114.128906 459.863281 C 112.996094 459.257812 111.898438 458.601562 110.835938 457.886719 C 109.769531 457.175781 108.742188 456.414062 107.75 455.597656 C 106.757812 454.785156 105.8125 453.925781 104.90625 453.019531 C 104 452.113281 103.140625 451.164062 102.324219 450.171875 C 101.511719 449.179688 100.75 448.152344 100.039062 447.085938 C 99.328125 446.019531 98.667969 444.917969 98.0625 443.789062 C 97.460938 442.65625 96.914062 441.5 96.421875 440.3125 C 95.933594 439.128906 95.5 437.921875 95.128906 436.695312 C 94.757812 435.46875 94.445312 434.226562 94.195312 432.96875 C 93.945312 431.710938 93.757812 430.441406 93.632812 429.167969 C 93.507812 427.890625 93.445312 426.609375 93.445312 425.328125 C 93.445312 424.046875 93.507812 422.765625 93.632812 421.488281 C 93.757812 420.214844 93.945312 418.945312 94.195312 417.6875 C 94.445312 416.429688 94.757812 415.1875 95.128906 413.960938 C 95.5 412.734375 95.933594 411.527344 96.421875 410.34375 C 96.914062 409.15625 97.460938 408 98.0625 406.867188 C 98.667969 405.738281 99.328125 404.636719 100.039062 403.570312 C 100.75 402.503906 101.511719 401.476562 102.324219 400.484375 C 103.140625 399.492188 104 398.542969 104.90625 397.636719 C 105.8125 396.730469 106.757812 395.871094 107.75 395.058594 C 108.742188 394.242188 109.769531 393.480469 110.835938 392.769531 C 111.898438 392.054688 112.996094 391.398438 114.128906 390.792969 C 115.257812 390.1875 116.414062 389.640625 117.597656 389.148438 C 118.785156 388.65625 119.988281 388.226562 121.214844 387.855469 C 122.441406 387.480469 123.683594 387.171875 124.941406 386.921875 C 126.195312 386.671875 127.464844 386.480469 128.738281 386.355469 C 130.015625 386.230469 131.292969 386.167969 132.574219 386.167969 C 133.855469 386.167969 135.132812 386.230469 136.410156 386.355469 C 137.683594 386.480469 138.949219 386.671875 140.207031 386.921875 C 141.464844 387.171875 142.707031 387.480469 143.933594 387.855469 C 145.160156 388.226562 146.363281 388.65625 147.546875 389.148438 C 148.730469 389.640625 149.890625 390.1875 151.019531 390.792969 C 152.148438 391.398438 153.246094 392.054688 154.3125 392.765625 C 155.378906 393.480469 156.40625 394.242188 157.398438 395.058594 C 158.386719 395.871094 159.335938 396.730469 160.242188 397.636719 C 161.148438 398.542969 162.007812 399.492188 162.820312 400.484375 C 163.636719 401.476562 164.398438 402.503906 165.109375 403.570312 C 165.820312 404.636719 166.480469 405.738281 167.082031 406.867188 C 167.6875 408 168.234375 409.15625 168.726562 410.34375 C 169.214844 411.527344 169.648438 412.734375 170.019531 413.960938 C 170.390625 415.1875 170.703125 416.429688 170.953125 417.6875 C 171.203125 418.945312 171.390625 420.214844 171.515625 421.488281 C 171.640625 422.765625 171.703125 424.046875 171.703125 425.328125 Z M 171.703125 425.328125 "/>
<path style=" stroke:none;fill-rule:nonzero;fill:rgb(7.839966%,73.329163%,88.62915%);fill-opacity:1;" d="M 547.527344 392.011719 C 546.359375 393.765625 547.234375 396.394531 548.988281 398.148438 C 551.910156 401.363281 556.289062 402.535156 560.667969 402.824219 C 564.171875 403.117188 567.675781 403.117188 571.179688 402.535156 C 571.472656 399.609375 571.765625 396.980469 571.765625 395.226562 C 571.765625 390.257812 567.386719 385.875 566.507812 385 C 561.542969 386.460938 556.582031 388.214844 551.617188 389.675781 C 549.863281 390.257812 548.402344 390.84375 547.527344 392.011719 Z M 547.527344 392.011719 "/>
<path style=" stroke:none;fill-rule:nonzero;fill:rgb(0%,49.409485%,69.40918%);fill-opacity:1;" d="M 183.09375 208.195312 C 183.09375 209.515625 183.027344 210.832031 182.898438 212.148438 C 182.769531 213.460938 182.574219 214.765625 182.316406 216.0625 C 182.0625 217.359375 181.742188 218.636719 181.355469 219.902344 C 180.972656 221.164062 180.53125 222.40625 180.023438 223.628906 C 179.519531 224.847656 178.957031 226.039062 178.335938 227.207031 C 177.710938 228.371094 177.035156 229.5 176.300781 230.601562 C 175.566406 231.699219 174.78125 232.757812 173.945312 233.777344 C 173.109375 234.800781 172.222656 235.777344 171.289062 236.710938 C 170.355469 237.644531 169.378906 238.53125 168.359375 239.367188 C 167.339844 240.207031 166.28125 240.992188 165.183594 241.726562 C 164.085938 242.460938 162.953125 243.136719 161.789062 243.761719 C 160.625 244.382812 159.433594 244.949219 158.214844 245.453125 C 156.996094 245.957031 155.753906 246.402344 154.492188 246.785156 C 153.230469 247.171875 151.949219 247.492188 150.65625 247.75 C 149.363281 248.007812 148.058594 248.199219 146.746094 248.328125 C 145.429688 248.457031 144.113281 248.523438 142.792969 248.523438 C 141.472656 248.523438 140.15625 248.457031 138.84375 248.328125 C 137.53125 248.199219 136.226562 248.007812 134.933594 247.75 C 133.636719 247.492188 132.359375 247.171875 131.097656 246.785156 C 129.832031 246.402344 128.59375 245.957031 127.371094 245.453125 C 126.152344 244.949219 124.960938 244.382812 123.796875 243.761719 C 122.632812 243.136719 121.503906 242.460938 120.40625 241.726562 C 119.308594 240.992188 118.25 240.207031 117.230469 239.367188 C 116.210938 238.53125 115.234375 237.644531 114.300781 236.710938 C 113.367188 235.777344 112.480469 234.800781 111.644531 233.777344 C 110.804688 232.757812 110.019531 231.699219 109.289062 230.601562 C 108.554688 229.5 107.875 228.371094 107.253906 227.207031 C 106.632812 226.039062 106.070312 224.847656 105.5625 223.628906 C 105.058594 222.40625 104.613281 221.164062 104.230469 219.902344 C 103.847656 218.636719 103.527344 217.359375 103.269531 216.0625 C 103.011719 214.765625 102.820312 213.460938 102.691406 212.148438 C 102.5625 210.832031 102.496094 209.515625 102.496094 208.195312 C 102.496094 206.875 102.5625 205.554688 102.691406 204.242188 C 102.820312 202.925781 103.011719 201.621094 103.269531 200.328125 C 103.527344 199.03125 103.847656 197.75 104.230469 196.488281 C 104.613281 195.222656 105.058594 193.980469 105.5625 192.761719 C 106.070312 191.539062 106.632812 190.347656 107.253906 189.183594 C 107.875 188.019531 108.554688 186.886719 109.289062 185.789062 C 110.019531 184.691406 110.804688 183.628906 111.644531 182.609375 C 112.480469 181.589844 113.367188 180.609375 114.300781 179.675781 C 115.234375 178.742188 116.210938 177.859375 117.230469 177.019531 C 118.25 176.179688 119.308594 175.394531 120.40625 174.660156 C 121.503906 173.929688 122.632812 173.25 123.796875 172.628906 C 124.960938 172.003906 126.152344 171.441406 127.371094 170.933594 C 128.59375 170.429688 129.832031 169.984375 131.097656 169.601562 C 132.359375 169.21875 133.636719 168.898438 134.933594 168.640625 C 136.226562 168.382812 137.53125 168.1875 138.84375 168.058594 C 140.15625 167.929688 141.472656 167.867188 142.792969 167.867188 C 144.113281 167.867188 145.429688 167.929688 146.746094 168.058594 C 148.058594 168.1875 149.363281 168.382812 150.65625 168.640625 C 151.949219 168.898438 153.230469 169.21875 154.492188 169.601562 C 155.753906 169.984375 156.996094 170.429688 158.214844 170.933594 C 159.433594 171.441406 160.625 172.003906 161.789062 172.628906 C 162.953125 173.25 164.085938 173.929688 165.183594 174.660156 C 166.28125 175.394531 167.339844 176.179688 168.359375 177.019531 C 169.378906 177.859375 170.355469 178.742188 171.289062 179.675781 C 172.222656 180.609375 173.109375 181.589844 173.945312 182.609375 C 174.78125 183.628906 175.566406 184.691406 176.300781 185.789062 C 177.035156 186.886719 177.710938 188.019531 178.335938 189.183594 C 178.957031 190.347656 179.519531 191.539062 180.023438 192.761719 C 180.53125 193.980469 180.972656 195.222656 181.355469 196.488281 C 181.742188 197.75 182.0625 199.03125 182.316406 200.328125 C 182.574219 201.621094 182.769531 202.925781 182.898438 204.242188 C 183.027344 205.554688 183.09375 206.875 183.09375 208.195312 Z M 183.09375 208.195312 "/>
</g>
</svg>
